<?xml version="1.0" encoding="utf-8"?>
<!-- Svg Vector Icons : http://www.onlinewebfonts.com/icon -->
<!DOCTYPE svg PUBLIC "-//W3C//DTD SVG 1.1//EN" "http://www.w3.org/Graphics/SVG/1.1/DTD/svg11.dtd">
<svg version="1.1" xmlns="http://www.w3.org/2000/svg" xmlns:xlink="http://www.w3.org/1999/xlink" x="0px" y="0px" viewBox="0 0 1000 1000" enable-background="new 0 0 1000 1000" xml:space="preserve">
<metadata> Svg Vector Icons : http://www.onlinewebfonts.com/icon </metadata>
<g><g transform="translate(0.000000,512.000000) scale(0.100000,-0.100000)"><path d="M712.5,120v-4900h306.2H1325l612.5,459.4l614.4,461.3l587.6-444c323.5-245,597.2-451.7,608.7-459.4c11.5-9.6,258.4,162.7,635.5,442.1l616.3,459.4l612.5-459.4L6225-4780l612.5,459.4l612.5,459.4l612.5-459.4L8675-4780h306.3h306.3V120v4900H5000H712.5V120z M8675,120v-4287.5l-612.5,459.4L7450-3248.7l-612.5-459.4L6225-4167.5l-612.5,459.4L5000-3248.7l-612.5-459.4L3775-4167.5l-612.5,459.4L2550-3248.7l-612.5-459.4L1325-4167.5V120v4287.5h3675h3675V120z"/><path d="M2550,2876.2V2570h2450h2450v306.2v306.3H5000H2550V2876.2z"/><path d="M2550,1038.8V732.5h1225h1225v306.3V1345H3775H2550V1038.8z"/><path d="M6225,1038.8V732.5h612.5H7450v306.3V1345h-612.5H6225V1038.8z"/><path d="M2550-186.3v-306.3h1225h1225v306.3V120H3775H2550V-186.3z"/><path d="M6225-186.3v-306.3h612.5H7450v306.3V120h-612.5H6225V-186.3z"/><path d="M2550-1411.2v-306.3h1225h1225v306.3v306.3H3775H2550V-1411.2z"/><path d="M6225-1411.2v-306.3h612.5H7450v306.3v306.3h-612.5H6225V-1411.2z"/></g></g>
</svg>